<svg width="11" height="9" viewBox="0 0 11 9" fill="none" xmlns="http://www.w3.org/2000/svg">
<path d="M10.1762 0.896484H0.823818C0.368822 0.896484 0 1.26531 0 1.7203V7.2796C0 7.73458 0.368822 8.10342 0.823818 8.10342H10.1762C10.6312 8.10342 11 7.7346 11 7.2796V1.7203C11 1.26531 10.6312 0.896484 10.1762 0.896484Z" fill="#73AF00"/>
<path d="M5.4014 1.90483L1.40411 4.33796C1.2827 4.41184 1.2827 4.58806 1.40411 4.66196L5.4014 7.09513C5.46197 7.132 5.53804 7.132 5.59863 7.09513L9.59592 4.66199C9.71733 4.5881 9.71733 4.41189 9.59592 4.33798L5.59863 1.90483C5.53806 1.86799 5.46197 1.86799 5.4014 1.90483Z" fill="#FFE15A"/>
<path d="M5.50002 6.01724C6.33796 6.01724 7.01724 5.33796 7.01724 4.50001C7.01724 3.66207 6.33796 2.98279 5.50002 2.98279C4.66207 2.98279 3.98279 3.66207 3.98279 4.50001C3.98279 5.33796 4.66207 6.01724 5.50002 6.01724Z" fill="#41479B"/>
<path d="M4.19806 3.72383C4.12647 3.84367 4.07119 3.9739 4.03467 4.1122C4.87576 4.04891 6.11998 4.2842 6.9119 5.05263C6.96359 4.9207 6.99773 4.78015 7.01051 4.63322C6.19282 3.94501 5.06233 3.70028 4.19806 3.72383Z" fill="#F5F5F5"/>
<path d="M5.56285 5.01776L5.60324 5.13889L5.73093 5.13988C5.74745 5.14001 5.7543 5.1611 5.741 5.17092L5.63829 5.24678L5.67681 5.36851C5.68179 5.38428 5.66383 5.39732 5.6504 5.3877L5.54653 5.31345L5.44265 5.3877C5.4292 5.3973 5.41126 5.38428 5.41624 5.36851L5.45477 5.24678L5.35205 5.17092C5.33875 5.1611 5.3456 5.14001 5.36213 5.13988L5.48981 5.13889L5.5302 5.01776C5.53544 5.00206 5.55761 5.00206 5.56285 5.01776Z" fill="#F5F5F5"/>
<path d="M6.05909 5.33113L6.07647 5.38325L6.13143 5.38368C6.13854 5.38372 6.14148 5.39281 6.13577 5.39704L6.09155 5.42967L6.10812 5.48207C6.11024 5.48886 6.10255 5.49447 6.09673 5.49032L6.05202 5.45838L6.00731 5.49032C6.00153 5.49447 5.9938 5.48886 5.99595 5.48207L6.01251 5.42967L5.9683 5.39704C5.96256 5.39283 5.96552 5.38374 5.97264 5.38368L6.02759 5.38325L6.04497 5.33113C6.04727 5.32436 6.05683 5.32436 6.05909 5.33113Z" fill="#F5F5F5"/>
<path d="M5.34826 4.78762L5.36564 4.83974L5.4206 4.84017C5.42771 4.84021 5.43068 4.8493 5.42494 4.85353L5.38073 4.88617L5.39729 4.93857C5.39942 4.94536 5.39173 4.95097 5.38593 4.94682L5.34122 4.91487L5.29651 4.94682C5.29073 4.95097 5.28299 4.94536 5.28512 4.93857L5.30169 4.88617L5.25747 4.85353C5.25176 4.84932 5.2547 4.84024 5.26181 4.84017L5.31677 4.83974L5.33415 4.78762C5.33645 4.78092 5.34601 4.78092 5.34826 4.78762Z" fill="#F5F5F5"/>
<path d="M4.38563 4.7244L4.40301 4.77652L4.45796 4.77695C4.46507 4.777 4.46804 4.78608 4.4623 4.79032L4.41809 4.82295L4.43465 4.87535C4.43678 4.88214 4.42909 4.88775 4.42327 4.8836L4.37856 4.85165L4.33385 4.8836C4.32807 4.88773 4.32034 4.88214 4.32248 4.87535L4.33905 4.82295L4.29483 4.79032C4.2891 4.78611 4.29206 4.77702 4.29917 4.77695L4.35413 4.77652L4.37151 4.7244C4.37383 4.71768 4.38337 4.71768 4.38563 4.7244Z" fill="#F5F5F5"/>
<path d="M5.19092 5.31316L5.2083 5.36529L5.26326 5.36571C5.27037 5.36576 5.27333 5.37485 5.2676 5.37908L5.22338 5.41171L5.23994 5.46411C5.24207 5.4709 5.23438 5.47651 5.22858 5.47236L5.18387 5.44042L5.13916 5.47236C5.13338 5.47651 5.12565 5.4709 5.12777 5.46411L5.14434 5.41171L5.10012 5.37908C5.09441 5.37487 5.09735 5.36578 5.10446 5.36571L5.15942 5.36529L5.1768 5.31316C5.17912 5.30642 5.18868 5.30642 5.19092 5.31316Z" fill="#F5F5F5"/>
<path d="M4.74781 4.68808L4.76204 4.73071L4.80698 4.73107C4.81278 4.73112 4.81521 4.73855 4.81055 4.74201L4.77439 4.76869L4.78795 4.81153C4.78971 4.81707 4.78339 4.82167 4.77864 4.81828L4.74208 4.79215L4.70551 4.81828C4.70076 4.82167 4.69447 4.81707 4.69621 4.81153L4.70976 4.76869L4.67361 4.74201C4.66894 4.73855 4.67133 4.73112 4.67717 4.73107L4.72212 4.73071L4.73634 4.68808C4.73817 4.68258 4.74597 4.68258 4.74781 4.68808Z" fill="#F5F5F5"/>
<path d="M6.09768 3.80808L6.11547 3.8614L6.17167 3.86183C6.17895 3.86187 6.18196 3.87118 6.17609 3.87552L6.13089 3.9089L6.14784 3.96251C6.15006 3.96945 6.14213 3.97518 6.13622 3.97095L6.09048 3.93825L6.04474 3.97095C6.03881 3.9752 6.03092 3.96942 6.03312 3.96251L6.05007 3.9089L6.00486 3.87552C5.999 3.8712 6.00203 3.86192 6.00929 3.86183L6.06549 3.8614L6.08328 3.80808C6.0856 3.80112 6.09538 3.80112 6.09768 3.80808Z" fill="#F5F5F5"/>
<path d="M4.44753 4.42724L4.46175 4.46986L4.5067 4.47023C4.5125 4.47027 4.51493 4.4777 4.51026 4.48116L4.4741 4.50785L4.48766 4.55069C4.48942 4.55623 4.48311 4.56083 4.47836 4.55743L4.44179 4.53131L4.40523 4.55743C4.40048 4.56083 4.39418 4.55623 4.39592 4.55069L4.40948 4.50785L4.37332 4.48116C4.36864 4.4777 4.37104 4.47029 4.37689 4.47023L4.42183 4.46986L4.43606 4.42724C4.43788 4.42172 4.44568 4.42172 4.44753 4.42724Z" fill="#F5F5F5"/>
<path d="M4.66455 5.02813L4.68608 5.0927L4.75414 5.09321C4.76295 5.09328 4.7666 5.10451 4.75951 5.10975L4.70475 5.15019L4.72528 5.21507C4.72795 5.22347 4.71839 5.23043 4.71121 5.2253L4.65583 5.1857L4.60044 5.2253C4.59329 5.23041 4.5837 5.22347 4.58637 5.21507L4.60691 5.15019L4.55214 5.10975C4.54505 5.10451 4.54871 5.09328 4.55751 5.09321L4.62558 5.0927L4.6471 5.02813C4.64996 5.01976 4.66178 5.01976 4.66455 5.02813Z" fill="#F5F5F5"/>
<path d="M6.33581 5.34465L6.34936 5.38527L6.39218 5.38559C6.39772 5.38564 6.40002 5.39271 6.39557 5.39599L6.36114 5.42143L6.37405 5.46225C6.3757 5.46754 6.36971 5.4719 6.36517 5.46867L6.33035 5.44377L6.2955 5.46867C6.29099 5.4719 6.28497 5.46754 6.28663 5.46225L6.29954 5.42143L6.2651 5.39599C6.26065 5.39271 6.26295 5.38564 6.26849 5.38559L6.31131 5.38527L6.32485 5.34465C6.32661 5.33938 6.33407 5.33938 6.33581 5.34465Z" fill="#F5F5F5"/>
<path d="M6.48563 5.03462L6.50301 5.08674L6.55797 5.08717C6.56508 5.08721 6.56805 5.0963 6.56231 5.10053L6.5181 5.13317L6.53466 5.18557C6.53679 5.19236 6.5291 5.19797 6.5233 5.19382L6.47859 5.16187L6.43388 5.19382C6.4281 5.19797 6.42036 5.19236 6.42251 5.18557L6.43908 5.13317L6.39486 5.10053C6.38915 5.09632 6.39209 5.08723 6.3992 5.08717L6.45416 5.08674L6.47154 5.03462C6.47382 5.02785 6.48338 5.02785 6.48563 5.03462Z" fill="#F5F5F5"/>
</svg>
