<svg width="128" height="16" viewBox="0 0 128 16" fill="none" xmlns="http://www.w3.org/2000/svg">
<path fill-rule="evenodd" clip-rule="evenodd" d="M119.629 4.05797H114.392C113.497 4.12501 113.256 4.32611 113.256 5.36517V8.21419H119.629V4.05797ZM122.419 1.74524V14.2474H119.629V10.661H113.256V14.2474H110.465V4.46018C110.465 2.71725 111.189 1.77875 113.256 1.77875H122.419V1.74524ZM107.675 4.46018V11.2308C107.675 13.3759 106.435 14.2474 104.884 14.2474H96.0997V1.74524H104.884C107.261 1.74524 107.675 3.22002 107.675 4.46018ZM104.85 5.19758C104.85 4.52722 104.437 4.05797 103.679 4.05797H98.8901V11.8676H103.679C104.781 11.8006 104.85 11.1638 104.85 10.661V5.19758ZM39.2235 1.74524H42.0139V6.67236H48.2493V1.74524H51.0397V14.2474H48.2493V9.15269H42.0139V14.2474H39.2235V1.74524ZM55.8282 1.74524L59.3421 6.83995L62.787 1.74524H66.1631L60.7201 9.72249V14.2474H57.9296V9.75601L52.4522 1.77875H55.8282V1.74524ZM81.8376 1.74524H90.829C92.1036 1.74524 93.3438 1.91283 93.3093 4.42667V14.2474H90.5189V5.36517C90.5189 4.29259 90.3811 4.05797 89.5199 4.05797H84.628V14.2474H81.8376V1.74524ZM128 1.74524V14.2474H125.21V1.74524H128ZM67.5755 14.2474H76.5668C78.3582 14.2474 79.0817 13.7446 79.0472 11.2308V1.74524H76.2568V10.661C76.2568 11.7336 76.119 11.8676 75.2578 11.8676H70.3659V1.74524H67.5755V14.2474Z" fill="white"/>
<path fill-rule="evenodd" clip-rule="evenodd" d="M19.5528 9.85646C19.794 11.0966 19.1394 12.1357 18.5882 13.1077C17.9682 14.0462 16.9691 14.8171 15.7289 14.7166C13.0074 14.683 10.3204 14.2808 7.83999 13.5434C7.73664 13.5099 7.59884 13.4429 7.56439 13.3423C7.52994 13.2082 7.59884 13.0742 7.70219 12.9736C9.97586 11.1972 12.6629 10.3592 15.3155 9.48776C16.3146 9.21962 17.3825 8.91796 18.4849 9.05204C18.8983 9.11907 19.3806 9.42073 19.5528 9.85646ZM28.8887 4.56064C30.1633 5.56618 31.3001 6.97392 30.9212 8.64982C30.3011 11.1301 27.5107 12.4373 25.3059 13.2753C24.1002 13.6775 22.8944 14.0797 21.5854 14.1803C21.5165 14.1803 21.3787 14.1803 21.3442 14.0797L21.3787 13.9456C23.2389 11.9011 24.6514 9.62184 25.8916 7.27559C26.4772 6.23654 26.9939 5.16396 27.4762 4.09139C27.5451 4.02435 27.614 3.95731 27.7174 3.95731C28.1652 3.95731 28.5097 4.32601 28.8887 4.56064ZM10.9749 1.91273L10.9404 2.0468C8.25338 5.02989 6.46201 8.48223 4.77398 11.9346C4.42948 12.2362 4.11944 11.834 3.84384 11.6999C2.36251 10.7279 0.984528 9.18611 1.39792 7.37614C2.01801 4.99637 4.56728 3.68917 6.6687 2.85122C7.90889 2.38197 9.21797 2.01328 10.5959 1.81217C10.7337 1.81217 10.906 1.81217 10.9749 1.91273ZM24.3758 2.4155C24.5136 2.48253 24.7203 2.51605 24.7892 2.68364C24.8581 2.85122 24.7203 2.95178 24.6169 3.08585C22.481 4.69471 20.0696 5.59969 17.5892 6.3706C16.3146 6.67226 15.0399 7.20855 13.662 6.90689C13.3175 6.83986 13.0419 6.60522 12.8352 6.30356C12.4907 5.36506 12.973 4.39305 13.3519 3.5551C13.9031 2.51605 14.8677 1.3094 16.1768 1.3094C19.0705 1.27588 21.7921 1.71162 24.3758 2.4155ZM27.9241 2.48253C30.0944 3.65565 32.5748 5.66673 32.2992 8.38168C31.9891 10.8955 29.5777 12.6384 27.4418 13.711C21.172 16.6271 12.3184 16.7276 5.84191 14.1803C3.63714 13.3088 1.19122 11.767 0.261086 9.48776C-0.462354 7.61076 0.398886 5.63321 1.84577 4.32601C4.87733 1.64458 8.73568 0.7396 12.6974 0.203313C17.0036 -0.299455 21.5509 0.136271 25.3748 1.44347C26.236 1.71161 27.0973 2.08031 27.9241 2.48253Z" fill="white"/>
</svg>
